<svg xmlns="http://www.w3.org/2000/svg" viewBox="0 0 1440 960" width="1440" height="960" style="background:url(#bg-grad);">
        
    <!-- Global Sidebar (Left: 250px) -->
    <g id="Global_App_Sidebar">
        <rect width="250" height="960" rx="24" fill="#090d16" stroke="#161f30" stroke-width="1.2"/>
        
        <!-- Brand -->
        <rect x="24" y="28" width="34" height="34" rx="10" fill="#162a15" stroke="#baff66" stroke-width="1.2"/>
        <text x="41" y="50" fill="#baff66" font-family="Arial, sans-serif" font-size="16" font-weight="bold" text-anchor="middle">🛡️</text>
        <text x="68" y="44" fill="#ffffff" font-family="Arial, sans-serif" font-size="14" font-weight="800" letter-spacing="0.5">MIGHTY LINK</text>
        <text x="68" y="56" fill="#8b949e" font-family="Arial, sans-serif" font-size="10">AI CONNECT PORTAL</text>

        <!-- Navigation Links -->
        
        <g transform="translate(16, 110)">
            <rect width="218" height="40" rx="8" fill="#162a15" stroke="#baff66" stroke-width="1"/>
            <text x="16" y="25" fill="#ffffff" font-family="Arial, sans-serif" font-size="15">🏠</text>
            <text x="44" y="25" fill="#ffffff" font-family="Arial, sans-serif" font-size="13" font-weight="bold">ホーム</text>
            <circle cx="200" cy="20" r="3.5" fill="#baff66"/>
        </g>
        <g transform="translate(16, 156)">
            <rect width="218" height="40" rx="8" fill="transparent" stroke="transparent" stroke-width="1"/>
            <text x="16" y="25" fill="#8b949e" font-family="Arial, sans-serif" font-size="15">🤝</text>
            <text x="44" y="25" fill="#8b949e" font-family="Arial, sans-serif" font-size="13" font-weight="500">営業メールマッチング</text>
            
        </g>
        <g transform="translate(16, 202)">
            <rect width="218" height="40" rx="8" fill="transparent" stroke="transparent" stroke-width="1"/>
            <text x="16" y="25" fill="#8b949e" font-family="Arial, sans-serif" font-size="15">🛡️</text>
            <text x="44" y="25" fill="#8b949e" font-family="Arial, sans-serif" font-size="13" font-weight="500">管理者ダッシュボード</text>
            
        </g>
        <g transform="translate(16, 248)">
            <rect width="218" height="40" rx="8" fill="transparent" stroke="transparent" stroke-width="1"/>
            <text x="16" y="25" fill="#8b949e" font-family="Arial, sans-serif" font-size="15">⏱️</text>
            <text x="44" y="25" fill="#8b949e" font-family="Arial, sans-serif" font-size="13" font-weight="500">勤怠管理</text>
            
        </g>
        <g transform="translate(16, 294)">
            <rect width="218" height="40" rx="8" fill="transparent" stroke="transparent" stroke-width="1"/>
            <text x="16" y="25" fill="#8b949e" font-family="Arial, sans-serif" font-size="15">📊</text>
            <text x="44" y="25" fill="#8b949e" font-family="Arial, sans-serif" font-size="13" font-weight="500">適性アンケート</text>
            
        </g>
        <g transform="translate(16, 340)">
            <rect width="218" height="40" rx="8" fill="transparent" stroke="transparent" stroke-width="1"/>
            <text x="16" y="25" fill="#8b949e" font-family="Arial, sans-serif" font-size="15">📈</text>
            <text x="44" y="25" fill="#8b949e" font-family="Arial, sans-serif" font-size="13" font-weight="500">自己診断デモ</text>
            
        </g>
        <g transform="translate(16, 386)">
            <rect width="218" height="40" rx="8" fill="transparent" stroke="transparent" stroke-width="1"/>
            <text x="16" y="25" fill="#8b949e" font-family="Arial, sans-serif" font-size="15">⚙️</text>
            <text x="44" y="25" fill="#8b949e" font-family="Arial, sans-serif" font-size="13" font-weight="500">初期セットアップ</text>
            
        </g>
        <g transform="translate(16, 432)">
            <rect width="218" height="40" rx="8" fill="transparent" stroke="transparent" stroke-width="1"/>
            <text x="16" y="25" fill="#8b949e" font-family="Arial, sans-serif" font-size="15">📖</text>
            <text x="44" y="25" fill="#8b949e" font-family="Arial, sans-serif" font-size="13" font-weight="500">研修ガイド</text>
            
        </g>

        <!-- Bottom User Card -->
        <g transform="translate(16, 880)">
            <rect width="218" height="56" rx="12" fill="#0d1424" stroke="#1e293b" stroke-width="1"/>
            <circle cx="34" cy="28" r="16" fill="#162e12" stroke="#baff66" stroke-width="1.2"/>
            <text x="34" y="33" fill="#baff66" font-family="Arial, sans-serif" font-size="12" font-weight="bold" text-anchor="middle">佐</text>
            <text x="60" y="24" fill="#ffffff" font-family="Arial, sans-serif" font-size="12" font-weight="bold">佐藤 賢太</text>
            <text x="60" y="40" fill="#baff66" font-family="Arial, sans-serif" font-size="10">最高統括管理者</text>
            <circle cx="198" cy="28" r="4" fill="#baff66"/>
        </g>
    </g>
        <g id="Main_Content_Viewport" transform="translate(270, 20)">
            <rect width="1150" height="920" rx="20" fill="#0c101a" stroke="#161f30" stroke-width="1.2"/>
            
        <!-- Home / AI Fit Simulator -->
        <g transform="translate(30, 20)">
            <text x="0" y="30" fill="#ffffff" font-family="Arial, sans-serif" font-size="22" font-weight="bold">AI スキル・カルチャー適合シミュレーター</text>
            <text x="0" y="55" fill="#8b949e" font-family="Arial, sans-serif" font-size="13">即戦力性・カルチャー・成長性・定着率をリアルタイム多軸解析</text>
            
            <!-- Left: Profile Inputs (480px) -->
            <g transform="translate(0, 80)">
                <rect width="520" height="740" rx="14" fill="#101726" stroke="#1e293b"/>
                <text x="24" y="35" fill="#8bdcff" font-family="Arial, sans-serif" font-size="15" font-weight="bold">求職者・人材プロファイル入力</text>
                
                <rect x="24" y="55" width="472" height="40" rx="8" fill="#090d16" stroke="#161f30"/>
                <text x="40" y="80" fill="#8b949e" font-family="Arial, sans-serif" font-size="12">経験職種: フルスタックエンジニア / 5年</text>
                
                <rect x="24" y="110" width="472" height="120" rx="8" fill="#090d16" stroke="#161f30"/>
                <text x="40" y="135" fill="#8b949e" font-family="Arial, sans-serif" font-size="12">保有スキル: Python, TypeScript, React, GCP, Terraform</text>
                
                <rect x="24" y="245" width="472" height="40" rx="8" fill="#090d16" stroke="#161f30"/>
                <text x="40" y="270" fill="#8b949e" font-family="Arial, sans-serif" font-size="12">希望年収: 750万〜900万円 / フルリモート</text>
                
                <rect x="24" y="300" width="472" height="340" rx="8" fill="#090d16" stroke="#161f30"/>
                <text x="40" y="330" fill="#baff66" font-family="Arial, sans-serif" font-size="13" font-weight="bold">候補者レーダーチャート &amp; AI適合レポート</text>
                <circle cx="260" cy="480" r="100" fill="none" stroke="#1e293b" stroke-dasharray="4"/>
                <polygon points="260,400 340,470 300,560 210,540 190,460" fill="rgba(186,255,102,0.15)" stroke="#baff66" stroke-width="2"/>
                
                <rect x="24" y="660" width="472" height="50" rx="10" fill="#162a15" stroke="#baff66"/>
                <text x="260" y="692" fill="#baff66" font-family="Arial, sans-serif" font-size="15" font-weight="bold" text-anchor="middle">⚡ 適合シミュレーションを実行</text>
            </g>
            
            <!-- Right: 4-Axis Score & Video (530px) -->
            <g transform="translate(540, 80)">
                <rect width="530" height="340" rx="14" fill="#101726" stroke="#1e293b"/>
                <text x="24" y="35" fill="#baff66" font-family="Arial, sans-serif" font-size="15" font-weight="bold">4軸総合フィットスコア (94 / 100)</text>
                
                <g transform="translate(24, 60)">
                    <text x="0" y="15" fill="#e2e8f0" font-family="Arial, sans-serif" font-size="12">即戦力性 (Performing-Fit)</text>
                    <rect x="200" y="5" width="280" height="12" rx="6" fill="#090d16"/>
                    <rect x="200" y="5" width="260" height="12" rx="6" fill="#baff66"/>
                    <text x="490" y="15" fill="#baff66" font-family="Arial, sans-serif" font-size="12" font-weight="bold">93%</text>
                </g>
                <g transform="translate(24, 95)">
                    <text x="0" y="15" fill="#e2e8f0" font-family="Arial, sans-serif" font-size="12">カルチャー適合性 (Culture-Fit)</text>
                    <rect x="200" y="5" width="280" height="12" rx="6" fill="#090d16"/>
                    <rect x="200" y="5" width="250" height="12" rx="6" fill="#8bdcff"/>
                    <text x="490" y="15" fill="#8bdcff" font-family="Arial, sans-serif" font-size="12" font-weight="bold">89%</text>
                </g>
                <g transform="translate(24, 130)">
                    <text x="0" y="15" fill="#e2e8f0" font-family="Arial, sans-serif" font-size="12">将来成長性 (Growth-Fit)</text>
                    <rect x="200" y="5" width="280" height="12" rx="6" fill="#090d16"/>
                    <rect x="200" y="5" width="270" height="12" rx="6" fill="#ffd166"/>
                    <text x="490" y="15" fill="#ffd166" font-family="Arial, sans-serif" font-size="12" font-weight="bold">96%</text>
                </g>
                <g transform="translate(24, 165)">
                    <text x="0" y="15" fill="#e2e8f0" font-family="Arial, sans-serif" font-size="12">定着期待度 (Retention-Fit)</text>
                    <rect x="200" y="5" width="280" height="12" rx="6" fill="#090d16"/>
                    <rect x="200" y="5" width="265" height="12" rx="6" fill="#06d6a0"/>
                    <text x="490" y="15" fill="#06d6a0" font-family="Arial, sans-serif" font-size="12" font-weight="bold">95%</text>
                </g>

                <!-- Video Showcase Box -->
                <g transform="translate(0, 360)">
                    <rect width="530" height="380" rx="14" fill="#101726" stroke="#1e293b"/>
                    <text x="24" y="35" fill="#8bdcff" font-family="Arial, sans-serif" font-size="15" font-weight="bold">サービス紹介デモビデオ</text>
                    <rect x="24" y="55" width="482" height="300" rx="10" fill="#000000" stroke="#1e293b"/>
                    <circle cx="265" cy="205" r="30" fill="rgba(186,255,102,0.2)" stroke="#baff66" stroke-width="2"/>
                    <polygon points="260,195 275,205 260,215" fill="#baff66"/>
                </g>
            </g>
        </g>
        </g>
        </svg>